<?xml version="1.0" encoding="utf-8"?>
<!-- Generator: Adobe Illustrator 25.3.1, SVG Export Plug-In . SVG Version: 6.00 Build 0)  -->
<svg version="1.1" id="Layer_1" xmlns="http://www.w3.org/2000/svg" xmlns:xlink="http://www.w3.org/1999/xlink" x="0px" y="0px"
	 viewBox="0 0 758 112" style="enable-background:new 0 0 758 112;" xml:space="preserve">
<g>
	<path d="M151.8,0.5c30.7,0,55.6,24.8,55.6,55.5c0,30.6-24.9,55.5-55.6,55.5c-11.7,0-22.6-3.6-31.6-9.8l7.5-13
		c6.7,4.9,15,7.9,24,7.9c22.4,0,40.6-18.1,40.6-40.5c0-22.4-18.2-40.5-40.6-40.5c-16.9,0-31.5,10.4-37.5,25.1H98.4
		C105.1,17.4,126.4,0.5,151.8,0.5z M56.1,0.5c11.7,0,22.6,3.6,31.6,9.8l-7.6,13c-6.7-4.9-15-7.9-24-7.9c-22.4,0-40.6,18.1-40.6,40.5
		c0,22.4,18.2,40.5,40.6,40.5c16.9,0,31.4-10.4,37.5-25.1h15.9c-6.7,23.2-28.1,40.1-53.4,40.1C25.4,111.5,0.5,86.6,0.5,56
		C0.5,25.4,25.4,0.5,56.1,0.5z"/>
	<g>
		<path d="M271.3,88.8l15.4-54.9L302,88.8h9.4l17.4-66.2H319l-12.5,53.9l-15-53.9h-9.8l-15,53.9l-12.5-53.9h-9.8l17.3,66.2H271.3z
			 M346.5,88.8v-31H381v31h9.1V22.6H381V50h-34.5V22.6h-9.1v66.2H346.5z M415.1,22.6H406v66.2h9.1V22.6z M455.6,88.8V30.5h22.4v-7.9
			h-53.8v7.9h22.4v58.3H455.6z M536.1,88.8V81h-40.3V58.5h36.6v-7.7h-36.6V30.7h39.6v-8.1H487v66.2H536.1z M600.3,90.6
			c8.9,0,16-2.8,21.3-8.5c4.4-4.7,7-10.6,7.8-17.5h-8.8c-0.9,4.4-2.3,7.9-4.1,10.5c-3.5,5.1-8.5,7.6-15.1,7.6
			c-7.2,0-12.6-2.4-16.2-7.2s-5.4-11.1-5.4-18.9c0-9.5,2-16.5,6-21.1c4-4.6,9.3-6.9,15.8-6.9c5.4,0,9.5,1.2,12.5,3.7
			c3,2.5,4.9,5.9,5.9,10.1h8.8c-0.5-5.6-3.1-10.6-7.7-15.1c-4.6-4.4-11.1-6.6-19.5-6.6c-9.8,0-17.6,3.4-23.2,10.2
			c-5.2,6.3-7.8,14.3-7.8,24c0,12.9,3.4,22.4,10.3,28.5C586.1,88.2,592.6,90.6,600.3,90.6z M667.1,90.6c11.2,0,18.8-4,22.9-12
			c2.2-4.4,3.3-10.7,3.3-18.8V22.6h-9.1v40.9c0,4.8-0.7,8.6-2.2,11.4c-2.7,5.2-7.9,7.8-15.5,7.8c-6.3,0-10.9-2.4-13.5-7.2
			c-1.8-3.2-2.7-7.2-2.7-12V22.6H641v37.2c0,8.1,1.1,14.4,3.3,18.8C648.3,86.6,655.9,90.6,667.1,90.6z M717,88.8v-28h20.9
			c6.7,0,11.6-1.9,14.9-5.7c3.2-3.8,4.8-8.3,4.8-13.5c0-6-1.8-10.7-5.4-14c-3.6-3.3-8.4-5-14.3-5H708v66.2L717,88.8L717,88.8z
			 M734.9,53.3H717V30.3h17.9c3.5,0,6.2,0.5,8.2,1.4c3.6,1.7,5.4,5.1,5.4,9.9c0,4.3-1.3,7.4-3.8,9.1
			C742.2,52.4,738.9,53.3,734.9,53.3z"/>
	</g>
</g>
</svg>
