<?xml version="1.0" encoding="UTF-8"?>
<svg id="Layer_2" xmlns="http://www.w3.org/2000/svg" version="1.1" viewBox="0 0 300.94 66.29">
  <!-- Generator: Adobe Illustrator 29.5.1, SVG Export Plug-In . SVG Version: 2.1.0 Build 141)  -->
  <defs>
    <style>
      .st0 {
        fill: #008542;
      }
    </style>
  </defs>
  <path class="st0" d="M4.66.5C2.36.5.47,2.38.47,4.69v57.25c0,2.31,1.89,4.19,4.19,4.19h8.84c2.31,0,4.2-1.89,4.2-4.19V21.92c0-2.31,1.89-4.2,4.19-4.2h22.8c2.31,0,4.2,1.89,4.2,4.2v22.74c0,2.31-1.89,4.19-4.2,4.19h-13.12c-2.31,0-4.19,1.89-4.19,4.2v8.84c0,2.31,1.89,4.19,4.19,4.19h30.35c2.31,0,4.19-1.88,4.19-4.19V4.7c0-2.31-1.89-4.19-4.19-4.19H4.66Z"/>
  <g>
    <path d="M80.73,28.39h5.68v3.64h.13c1.58-1.92,5.24-4.24,10.93-4.24,9.35,0,13.89,6.11,13.89,13.04s-4.11,13.94-13.83,13.94c-5.69,0-8.91-1.77-10.74-4.14h-.12v14.15h-5.94V28.39ZM96.21,31.62c-6.44,0-9.54,4.9-9.54,9.7,0,4.3,2.78,9.6,9.47,9.6s9.03-5.71,8.91-9.75c.13-4.65-2.4-9.55-8.84-9.55Z"/>
    <path d="M118.76,30.21c2.97-1.41,6.5-2.43,10.61-2.43,9.22,0,12.95,3.64,12.95,10.66v10.66c0,2.93.13,4.3.25,5.05h-5.56v-3.33h-.13c-1.39,1.56-4.55,3.94-9.98,3.94-6.95,0-11.81-2.43-11.81-8.03,0-6.47,8.84-8.49,14.97-8.49,2.34,0,3.98,0,6.32.1,0-4.45-2.02-6.72-7.96-6.72-3.35,0-6.95,1.01-9.35,2.63l-.32-4.04ZM136.38,41.88c-1.26,0-2.53-.1-3.79-.1-3.22,0-11.18.4-11.18,4.95,0,2.73,3.29,4.19,6,4.19,5.87,0,8.97-2.93,8.97-6.77v-2.27Z"/>
    <path d="M147.87,61.13c.76.2,1.77.41,2.78.41,5.31,0,7.08-5.86,7.08-6.37,0-.56-.76-1.87-1.14-2.73l-10.93-24.05h6.5l8.65,21.33h.13l8.85-21.33h6l-11.88,26.33c-2.21,4.95-4.55,10.66-12.38,10.66-1.9,0-2.97-.2-4.04-.35l.37-3.9Z"/>
    <path d="M200.23,32.73c-2.27-.76-4.55-1.11-6.44-1.11-6.63,0-10.35,4.75-10.35,9.65,0,4.6,3.09,9.65,10.74,9.65,2.02,0,4.54-.5,6.38-1.46l.44,4.24c-2.46.91-5.31,1.06-7.45,1.06-9.73,0-16.42-6.11-16.42-13.49,0-7.84,6.57-13.49,16.42-13.49,2.4,0,5.49.45,7.2,1.01l-.51,3.94Z"/>
    <path d="M220.01,27.78c9.79,0,16.36,5.66,16.36,13.49,0,7.38-6.69,13.49-16.36,13.49s-16.42-6.11-16.42-13.49c0-7.84,6.57-13.49,16.42-13.49ZM220.01,50.92c6.95,0,10.05-5.05,10.05-9.65,0-4.9-3.73-9.65-10.05-9.65s-10.1,4.75-10.1,9.65c0,4.6,3.1,9.65,10.1,9.65Z"/>
    <path d="M242.17,28.39h5.56v3.74h.13c2.27-2.98,5.49-4.35,10.23-4.35,3.73,0,7.45,1.52,9.16,5,2.21-3.69,7.08-5,9.98-5,8.21,0,11.18,4.24,11.18,9.85v16.52h-5.94v-15.36c0-3.18-.94-7.17-5.75-7.17-6.06,0-8.46,4.75-8.46,9.55v12.98h-5.94v-15.36c0-3.18-.95-7.17-5.75-7.17-6.06,0-8.47,4.75-8.47,9.55v12.98h-5.94v-25.77Z"/>
    <path d="M291.73,32.86c0-2.41,1.96-4.37,4.37-4.37s4.37,1.96,4.37,4.37-1.96,4.37-4.37,4.37-4.37-1.96-4.37-4.37ZM299.4,32.86c0-2.05-1.48-3.52-3.31-3.52s-3.3,1.48-3.3,3.52,1.48,3.52,3.3,3.52,3.31-1.48,3.31-3.52ZM294.41,30.37h1.84c1.19,0,1.83.41,1.83,1.45,0,.85-.48,1.26-1.29,1.33l1.33,2.17h-.94l-1.29-2.13h-.55v2.13h-.93v-4.95ZM295.34,32.49h.8c.55,0,1.02-.07,1.02-.74,0-.58-.53-.68-1.01-.68h-.81v1.42Z"/>
  </g>
</svg>